<svg width="18" height="16" viewBox="0 0 18 16" fill="none" xmlns="http://www.w3.org/2000/svg">
<path d="M14.6968 1.32535C14.9837 1.0112 15.3815 0.820804 15.8061 0.794337C16.2308 0.76787 16.6491 0.907403 16.9728 1.18349C17.2965 1.45958 17.5003 1.85063 17.5412 2.27412C17.5821 2.69762 17.4569 3.12044 17.1919 3.45335L9.24652 14.9512C9.10808 15.123 8.93643 15.265 8.74184 15.3689C8.54724 15.4728 8.3337 15.5363 8.11398 15.5558C7.89426 15.5752 7.67287 15.5502 7.46305 15.4821C7.25323 15.4141 7.05929 15.3044 6.89283 15.1597L0.715041 9.78941C0.543767 9.65082 0.402161 9.47916 0.298671 9.28465C0.195181 9.09015 0.131927 8.87679 0.112684 8.65731C0.09344 8.43783 0.118601 8.21673 0.186664 8.00718C0.254728 7.79764 0.3643 7.60395 0.508844 7.43767C0.653388 7.27139 0.829942 7.13593 1.02798 7.03936C1.22601 6.9428 1.44146 6.88711 1.66148 6.87562C1.88151 6.86413 2.10159 6.89708 2.3086 6.97249C2.51562 7.0479 2.70532 7.16424 2.86639 7.31456L7.75524 11.5623L14.6587 1.37626C14.6712 1.3585 14.6846 1.34145 14.699 1.32519L14.6968 1.32535Z" fill="#0066FF"/>
</svg>
