<svg width="80" height="80" viewBox="0 0 80 80" fill="none" xmlns="http://www.w3.org/2000/svg">
<path d="M68.25 47.5V23.125L49.5 10L30.75 23.125V28.75H23.25V19.375L49.5 0.625L75.75 19.375V47.5H68.25ZM51.375 25H55.125V21.25H51.375V25ZM43.875 25H47.625V21.25H43.875V25ZM51.375 32.5H55.125V28.75H51.375V32.5ZM43.875 32.5H47.625V28.75H43.875V32.5ZM49.5 79.375L23.25 72.0625V77.5H0.75V36.25H30.5625L53.8125 44.875C55.875 45.625 57.5475 46.9375 58.83 48.8125C60.11 50.6875 60.75 52.75 60.75 55H68.25C71.375 55 74.0312 56.0313 76.2188 58.0938C78.4062 60.1563 79.5 62.875 79.5 66.25V70L49.5 79.375ZM8.25 70H15.75V43.75H8.25V70ZM49.3125 71.5L71.625 64.5625C71.4375 63.875 71.015 63.3587 70.3575 63.0137C69.7025 62.6712 69 62.5 68.25 62.5H50.25C48.3125 62.5 46.5625 62.375 45 62.125C43.4375 61.875 41.75 61.4375 39.9375 60.8125L33.4688 58.5625L35.625 51.4375L43.125 53.875C44.25 54.25 45.5625 54.5312 47.0625 54.7188C48.5625 54.9062 50.625 55 53.25 55C53.25 54.3125 53.0475 53.6562 52.6425 53.0312C52.235 52.4062 51.75 52 51.1875 51.8125L29.25 43.75H23.25V64.375L49.3125 71.5Z" fill="black"/>
</svg>
